<?xml version="1.0" standalone="no"?>
<!DOCTYPE svg PUBLIC "-//W3C//DTD SVG 20010904//EN"
 "http://www.w3.org/TR/2001/REC-SVG-20010904/DTD/svg10.dtd">
<svg version="1.0" xmlns="http://www.w3.org/2000/svg"
 width="286.000000pt" height="286.000000pt" viewBox="0 0 286.000000 286.000000"
 preserveAspectRatio="xMidYMid meet">
<metadata>
Created by potrace 1.11, written by Peter Selinger 2001-2013
</metadata>
<g transform="translate(0.000000,286.000000) scale(0.100000,-0.100000)"
fill="#000000" stroke="none">
<path d="M2044 2648 c-22 -42 -92 -116 -187 -196 -108 -91 -185 -197 -272
-374 l-73 -148 -40 67 c-88 149 -224 307 -327 381 -27 20 -82 60 -122 89 -39
29 -78 53 -86 53 -18 0 -21 -12 -44 -185 -11 -82 -17 -189 -16 -290 0 -137 4
-173 26 -255 14 -52 28 -103 32 -112 6 -14 -9 -10 -69 17 -85 40 -247 81 -351
90 -38 3 -116 11 -173 16 -104 11 -152 7 -152 -12 0 -6 20 -36 43 -67 24 -31
86 -120 138 -197 113 -168 204 -267 307 -333 167 -107 410 -188 592 -198 l85
-4 -135 29 c-405 86 -612 208 -795 466 -27 39 -87 121 -133 183 -46 63 -81
116 -78 120 8 7 268 -16 366 -33 110 -19 184 -40 280 -79 76 -30 89 -39 122
-86 45 -65 115 -137 193 -199 81 -65 123 -84 55 -25 -119 102 -225 219 -253
276 -61 127 -91 342 -77 541 14 187 32 317 44 317 19 -1 206 -156 305 -253
121 -119 237 -296 270 -412 6 -22 16 -99 21 -171 6 -88 15 -148 29 -185 28
-74 124 -229 135 -218 3 2 -18 40 -45 84 -70 114 -85 161 -93 295 -3 63 -13
143 -21 178 l-15 63 36 87 c90 219 179 350 326 483 102 92 118 109 156 157 18
23 28 30 36 22 16 -16 11 -209 -8 -331 -9 -59 -20 -198 -26 -310 -18 -388 -33
-472 -110 -624 -38 -76 -51 -93 -83 -108 -48 -22 -67 -64 -74 -165 -4 -50 -11
-76 -20 -79 -8 -3 -17 -2 -21 2 -4 4 -1 10 6 12 10 4 10 8 1 19 -17 21 -27 17
-31 -13 -2 -24 -8 -29 -36 -31 -28 -3 -42 5 -90 50 -70 64 -238 152 -294 152
-26 0 -34 4 -27 12 5 6 7 19 3 28 -7 17 6 22 22 7 5 -5 71 -41 147 -80 76 -39
150 -80 164 -91 26 -20 49 -18 36 3 -4 7 0 6 10 -2 13 -10 17 -10 17 -1 0 7 7
10 15 6 26 -10 16 9 -26 49 -48 47 -114 144 -159 235 -18 36 -41 71 -51 78
-25 17 -24 36 1 29 10 -3 21 0 23 7 7 18 23 -3 47 -64 23 -55 180 -303 201
-315 21 -14 22 6 1 33 -63 77 -172 254 -187 302 -25 78 -32 84 -83 64 -45 -18
-54 -41 -26 -64 8 -8 34 -45 56 -84 23 -39 68 -107 99 -151 53 -73 56 -81 38
-87 -15 -6 -61 14 -172 73 -84 44 -163 81 -177 82 -23 2 -25 -1 -25 -43 l0
-45 45 0 c34 0 64 -10 124 -44 99 -54 183 -114 167 -119 -16 -5 -14 -22 5 -43
14 -16 14 -19 -5 -38 -20 -20 -23 -20 -46 -5 -32 21 -32 26 0 18 15 -4 25 -2
25 5 0 6 -5 11 -11 11 -5 0 -8 4 -4 9 3 5 1 12 -4 16 -6 3 -8 12 -5 19 3 9 -3
17 -16 21 -30 10 -35 0 -16 -30 16 -24 16 -25 -4 -25 -29 0 -25 -14 13 -46 17
-15 31 -34 29 -43 -2 -9 -22 -35 -45 -58 -22 -24 -38 -46 -34 -50 4 -4 49 36
100 89 94 99 98 101 204 123 30 6 32 5 39 -30 15 -80 -38 -190 -130 -271 -59
-52 -192 -119 -323 -163 -51 -17 -94 -31 -97 -31 -2 0 -6 24 -8 54 -4 43 -11
62 -37 92 -68 77 -15 139 202 234 42 18 77 37 77 42 0 38 -246 -87 -310 -157
-36 -39 -88 -63 -166 -75 -140 -23 -231 -3 -654 143 -224 77 -245 86 -248 108
-11 100 206 202 461 216 118 7 147 23 40 23 -139 -1 -303 -37 -402 -90 -73
-39 -100 -67 -111 -115 -13 -56 1 -82 52 -95 24 -6 52 -14 63 -17 11 -2 81
-29 155 -58 182 -71 343 -122 432 -136 98 -15 234 -6 294 20 56 25 54 25 54 5
0 -9 16 -34 35 -55 32 -36 35 -45 35 -99 l0 -60 33 0 c17 0 57 7 87 15 72 19
281 124 345 173 l51 39 54 -50 c54 -48 117 -87 142 -87 67 0 160 -70 229 -171
22 -33 57 -77 79 -100 37 -40 41 -41 62 -27 13 9 24 24 26 34 4 27 -69 137
-139 210 -70 74 -79 95 -72 166 6 62 -15 122 -73 214 l-37 58 34 25 c113 84
185 193 254 386 26 72 62 163 81 203 43 92 44 112 6 112 -81 0 -200 -76 -321
-206 -39 -42 -71 -74 -71 -72 0 3 9 31 20 63 32 94 49 217 60 445 5 118 19
298 31 400 22 195 20 290 -7 341 -19 37 -30 36 -50 -3z m336 -1002 c0 -3 -16
-40 -36 -83 -20 -43 -47 -112 -60 -153 -43 -131 -118 -273 -180 -340 -71 -76
-119 -102 -205 -108 l-67 -5 -16 56 c-33 112 -12 197 55 229 20 9 61 45 90 79
166 192 273 288 354 317 32 11 65 15 65 8z m-755 -657 c11 -17 -1 -21 -15 -4
-8 9 -8 15 -2 15 6 0 14 -5 17 -11z m287 -83 c10 -12 36 -49 59 -84 23 -34 44
-60 47 -58 6 7 -44 90 -79 130 -34 40 -36 46 -9 46 13 0 34 -25 71 -85 29 -47
54 -83 56 -81 6 6 -23 61 -59 114 -17 24 -28 46 -25 48 9 9 55 -59 89 -131 28
-60 32 -80 31 -139 -1 -38 3 -78 9 -89 6 -11 47 -59 92 -107 86 -91 126 -154
107 -173 -14 -14 -32 2 -101 93 -68 89 -145 166 -180 179 -14 5 -50 17 -80 25
-42 12 -71 29 -118 72 -53 48 -77 84 -56 84 4 0 33 -25 66 -55 32 -30 64 -55
71 -55 6 0 -20 29 -58 64 -57 52 -68 67 -57 77 10 11 25 0 82 -56 39 -38 70
-63 70 -56 0 7 -29 41 -65 76 -62 59 -77 86 -55 100 6 3 10 17 10 31 0 13 4
24 8 24 5 0 36 -35 70 -78 34 -43 72 -87 84 -98 l21 -19 -19 33 c-10 18 -49
68 -86 112 -37 44 -68 81 -68 83 0 12 57 -9 72 -27z"/>
<path d="M2017 1213 c-66 -43 -114 -79 -108 -81 12 -4 199 117 220 142 8 9 12
16 10 16 -2 0 -57 -35 -122 -77z"/>
<path d="M1868 803 c48 -57 82 -90 82 -77 0 13 -100 124 -112 124 -5 0 8 -21
30 -47z"/>
<path d="M1837 2190 c-66 -227 -107 -457 -107 -608 0 -63 2 -113 5 -110 3 3
10 68 15 144 11 152 21 211 75 448 36 157 43 231 12 126z"/>
<path d="M1155 1999 c21 -65 154 -364 164 -367 6 -2 -5 34 -25 80 -20 46 -56
131 -81 191 -25 59 -50 110 -55 113 -6 4 -7 -2 -3 -17z"/>
<path d="M550 1593 c0 -14 497 -289 506 -280 3 3 -30 24 -73 48 -43 23 -107
60 -141 81 -102 62 -292 161 -292 151z"/>
<path d="M1737 1178 c-2 -7 0 -24 6 -38 l11 -25 4 28 c2 15 8 27 13 27 6 0 7
5 4 10 -9 14 -32 12 -38 -2z"/>
<path d="M1415 1039 c-8 -11 22 -49 39 -49 6 0 5 5 -2 12 -16 16 -15 28 3 28
8 0 15 5 15 10 0 13 -47 13 -55 -1z"/>
<path d="M610 960 c14 -4 86 -8 160 -8 108 1 123 2 75 8 -83 11 -267 10 -235
0z"/>
</g>
</svg>
